<svg id="PeopleAI_logo" xmlns="http://www.w3.org/2000/svg" width="421.757" height="98.858" viewBox="0 0 421.757 98.858">
  <rect id="Rectangle_10" data-name="Rectangle 10" width="18.389" height="7.863" transform="translate(319.671 53.095)" fill="#9dff00"/>
  <circle id="Ellipse_1" data-name="Ellipse 1" cx="4.41" cy="4.41" r="4.41" transform="translate(308.513 52.619)" fill="#00e500"/>
  <path id="Path_19" data-name="Path 19" d="M178.955,50.721c-5.015,0-8.264,2.052-10.255,5.64V46.9a20.071,20.071,0,0,1,10.255-2.392c14.529,0,21.2,9.575,21.2,26.272,0,10.255-2.677,17.778-8.148,21.937V70.782C192,58.761,188.809,50.721,178.955,50.721Z" transform="translate(-54.056 -14.262)" fill="#9dff00"/>
  <path id="Path_20" data-name="Path 20" d="M101.138,44.51a22.792,22.792,0,0,0-10.316,2.168v8.889c2.168-3.364,5.586-4.845,10.085-4.845,7.978,0,12.307,4.954,12.253,17.207H88.029V48.438c-5.926,4.5-8.379,12.538-8.379,22.283,0,1.169.034,2.283.1,3.364H121.3c.054-1.142.116-2.847.116-4.73,0-16.636-7.237-24.845-20.285-24.845Z" transform="translate(-25.522 -14.262)" fill="#9dff00"/>
  <path id="Path_21" data-name="Path 21" d="M361.546,44.51a22.792,22.792,0,0,0-10.316,2.168v8.889c2.168-3.364,5.586-4.845,10.085-4.845,7.978,0,12.307,4.954,12.253,17.207H362.341v6.157h19.375c.054-1.142.116-2.847.116-4.73,0-16.636-7.237-24.845-20.285-24.845Z" transform="translate(-112.543 -14.262)" fill="#9dff00"/>
  <path id="Path_22" data-name="Path 22" d="M304.076,61.432h7.863V13.74H299v6.2h5.076Z" transform="translate(-95.807 -4.403)" fill="#9dff00"/>
  <path id="Path_23" data-name="Path 23" d="M252.046,90.547a15.051,15.051,0,0,1-3.337.353c-9.8,0-12.477-7.924-12.477-19.884V45.6H223.3v6.211h5.07v61.658h7.863V90.445c2.222,3.473,6.9,6.667,14.414,6.667.476,0,.938-.02,1.4-.048V90.547Z" transform="translate(-71.551 -14.611)" fill="#9dff00"/>
  <path id="Path_24" data-name="Path 24" d="M541.144,100.635c-5.872,0-10.316-2.277-10.316-9.745,0-9.861,7.747-9.684,14.414-9.684H551.4V75.45H543.76c-10.71,0-21.08,1.651-21.08,15.555,0,12.083,8.094,15.725,16.751,15.725,5.416,0,9.344-1.481,11.967-3.588V96.075C549.516,98.753,546.383,100.635,541.144,100.635Z" transform="translate(-167.48 -24.176)" fill="#9dff00"/>
  <path id="Path_25" data-name="Path 25" d="M610.283,88.03H602.42v21.991h12.368V103.81h-4.505Z" transform="translate(-193.031 -28.207)" fill="#9dff00"/>
  <path id="Path_26" data-name="Path 26" d="M34.706,44.51c-5.185,0-8.943,1.536-11.566,3.649v7.693c1.937-3.194,4.954-5.07,9.684-5.07,9.861,0,13.048,7.924,13.048,19.884,0,9.011-1.814,15.732-6.918,18.5v7.217c8.753-1.672,15.012-9.066,15.012-25.715C53.965,51.462,45.647,44.51,34.706,44.51Z" transform="translate(-7.415 -14.262)" fill="#9dff00"/>
  <rect id="Rectangle_11" data-name="Rectangle 11" width="7.863" height="18.389" transform="translate(309.009 31.913)" fill="#00e500"/>
  <rect id="Rectangle_12" data-name="Rectangle 12" width="18.389" height="7.863" transform="translate(287.827 53.095)" fill="#00e500"/>
  <path id="Path_27" data-name="Path 27" d="M152.6,72.817c0-10.316,2.678-17.778,8.148-21.937V72.817c0,11.967,3.194,20,13.048,20,4.954,0,8.2-2.052,10.255-5.64v9.46A20.071,20.071,0,0,1,173.8,99.028C159.267,99.028,152.6,89.453,152.6,72.817Z" transform="translate(-48.897 -16.303)" fill="#00e500"/>
  <path id="Path_28" data-name="Path 28" d="M104.447,105.813c-9.263,0-15.053-4.329-15.99-13.673H80.2c1.855,14.713,10.717,20,23.337,20a37.8,37.8,0,0,0,15.046-2.909l-.51-6.551a33.042,33.042,0,0,1-13.619,3.133Z" transform="translate(-25.698 -29.524)" fill="#00e500"/>
  <path id="Path_29" data-name="Path 29" d="M359.421,92.4c-10.146,0-16.126-5.185-16.126-16.466h11V69.78H343.179V50.29c-5.926,4.5-8.379,12.538-8.379,22.283,0,19.429,9.46,26.157,23.7,26.157a37.8,37.8,0,0,0,15.046-2.909l-.51-6.551A33.042,33.042,0,0,1,359.421,92.4Z" transform="translate(-107.279 -16.114)" fill="#00e500"/>
  <path id="Path_30" data-name="Path 30" d="M314.333,103.81V88.03H306.47v21.991h12.361V103.81Z" transform="translate(-98.201 -28.207)" fill="#00e500"/>
  <path id="Path_31" data-name="Path 31" d="M258,44.51c-5.185,0-8.943,1.536-11.566,3.649v7.693c1.937-3.194,4.954-5.07,9.684-5.07,9.861,0,13.048,7.924,13.048,19.884,0,9.011-1.814,15.732-6.918,18.5v7.217c8.753-1.672,15.012-9.066,15.012-25.715C277.255,51.462,268.937,44.51,258,44.51Z" transform="translate(-78.963 -14.262)" fill="#00e500"/>
  <path id="Path_32" data-name="Path 32" d="M563.75,89.865V67.187c0-8.665,0-22.677-20.625-22.677a48.968,48.968,0,0,0-14.985,2.338l.455,6.266a45.588,45.588,0,0,1,13.9-2.338c8.094,0,13.619,2.508,13.388,14.76l.054,5.756h0v.435h0V96.083h12.307V89.872h-4.5Z" transform="translate(-169.23 -14.262)" fill="#00e500"/>
  <path id="Path_33" data-name="Path 33" d="M600.03,71.641h7.863V45.6H594.96v6.211h5.07Z" transform="translate(-190.641 -14.611)" fill="#00e500"/>
  <path id="Path_34" data-name="Path 34" d="M28.753,90.547a15.051,15.051,0,0,1-3.337.353c-9.8,0-12.477-7.924-12.477-19.884V45.6H0v6.211H5.07v61.658h7.863V90.445c2.222,3.473,6.9,6.667,14.414,6.667.476,0,.938-.02,1.4-.048V90.547Z" transform="translate(0 -14.611)" fill="#00e500"/>
  <rect id="Rectangle_13" data-name="Rectangle 13" width="7.863" height="18.389" transform="translate(309.009 63.758)" fill="#9dff00"/>
  <circle id="Ellipse_2" data-name="Ellipse 2" cx="9.84" cy="9.84" r="9.84" transform="translate(402.076 0)" fill="#00e500"/>
</svg>
